<svg version="1.2" xmlns="http://www.w3.org/2000/svg" viewBox="0 0 24 24" width="24" height="24">
	<title>googleforms-svg</title>
	<style>
		.s0 { fill: #ffffff } 
	</style>
	<path fill-rule="evenodd" class="s0" d="m20.7 6.7v15.7c0 0.9-0.7 1.6-1.6 1.6h-14.2c-0.9 0-1.6-0.7-1.6-1.6v-20.8c0-0.9 0.7-1.6 1.6-1.6h9.1v6.7zm-6-6.7l6 6h-6zm-6.2 17.1q0.2-0.3 0.2-0.6 0-0.3-0.2-0.6-0.3-0.2-0.6-0.2-0.4 0-0.6 0.2-0.2 0.3-0.2 0.6 0 0.3 0.2 0.6 0.2 0.2 0.6 0.2 0.3 0 0.6-0.2zm-0.1-3.3q0.3-0.2 0.3-0.6 0-0.3-0.3-0.5-0.2-0.3-0.5-0.3-0.4 0-0.6 0.2-0.3 0.3-0.3 0.6 0 0.4 0.3 0.6 0.2 0.3 0.6 0.2 0.3 0 0.5-0.2zm0.1-3.3q0.2-0.2 0.2-0.5 0-0.4-0.2-0.6-0.3-0.3-0.6-0.3-0.4 0-0.6 0.3-0.2 0.2-0.2 0.6 0 0.3 0.2 0.5 0.2 0.3 0.6 0.3 0.3 0 0.6-0.3zm8.4 5.3h-6.8v1.4h6.8zm0-3.3h-6.8v1.4h6.8zm0-3.3h-6.8v1.4h6.8z"/>
</svg>